<mxfile host="app.diagrams.net" modified="2024-03-01T15:17:36.523Z" agent="Mozilla/5.0 (Windows NT 10.0; Win64; x64) AppleWebKit/537.36 (KHTML, like Gecko) Chrome/122.0.0.0 Safari/537.36" etag="Z9hNqH7GYIWGSAb6aevU" version="24.0.0" type="device">
  <diagram name="Page-1" id="jFZ6uNOgufLgV9Xz-6g9">
    <mxGraphModel dx="5250" dy="2650" grid="1" gridSize="10" guides="1" tooltips="1" connect="1" arrows="1" fold="1" page="1" pageScale="1" pageWidth="1737" pageHeight="2114" math="0" shadow="0">
      <root>
        <mxCell id="0" />
        <mxCell id="1" parent="0" />
        <object label="" Customer="Customer" placeholders="1" id="Y--FWD_rMeRqaUhSlxtO-1">
          <mxCell style="shape=umlActor;verticalLabelPosition=bottom;verticalAlign=top;html=1;outlineConnect=0;" vertex="1" parent="1">
            <mxGeometry x="129" y="620" width="30" height="60" as="geometry" />
          </mxCell>
        </object>
        <mxCell id="Y--FWD_rMeRqaUhSlxtO-2" value="" style="ellipse;whiteSpace=wrap;html=1;" vertex="1" parent="1">
          <mxGeometry x="249" y="500" width="120" height="80" as="geometry" />
        </mxCell>
        <mxCell id="Y--FWD_rMeRqaUhSlxtO-3" value="" style="ellipse;whiteSpace=wrap;html=1;" vertex="1" parent="1">
          <mxGeometry x="589" y="630" width="120" height="80" as="geometry" />
        </mxCell>
        <mxCell id="Y--FWD_rMeRqaUhSlxtO-4" value="" style="ellipse;whiteSpace=wrap;html=1;" vertex="1" parent="1">
          <mxGeometry x="349" y="745" width="120" height="80" as="geometry" />
        </mxCell>
        <mxCell id="Y--FWD_rMeRqaUhSlxtO-5" value="" style="ellipse;whiteSpace=wrap;html=1;" vertex="1" parent="1">
          <mxGeometry x="319" y="860" width="120" height="80" as="geometry" />
        </mxCell>
        <mxCell id="Y--FWD_rMeRqaUhSlxtO-7" value="" style="endArrow=classic;html=1;rounded=0;entryX=0;entryY=1;entryDx=0;entryDy=0;exitX=1;exitY=0.3333333333333333;exitDx=0;exitDy=0;exitPerimeter=0;" edge="1" parent="1" source="Y--FWD_rMeRqaUhSlxtO-1" target="Y--FWD_rMeRqaUhSlxtO-2">
          <mxGeometry width="50" height="50" relative="1" as="geometry">
            <mxPoint x="169" y="580" as="sourcePoint" />
            <mxPoint x="229" y="600" as="targetPoint" />
          </mxGeometry>
        </mxCell>
        <mxCell id="Y--FWD_rMeRqaUhSlxtO-8" value="" style="endArrow=classic;html=1;rounded=0;exitX=1;exitY=1;exitDx=0;exitDy=0;exitPerimeter=0;entryX=0;entryY=0.5;entryDx=0;entryDy=0;" edge="1" parent="1" source="Y--FWD_rMeRqaUhSlxtO-1" target="Y--FWD_rMeRqaUhSlxtO-3">
          <mxGeometry width="50" height="50" relative="1" as="geometry">
            <mxPoint x="219" y="730" as="sourcePoint" />
            <mxPoint x="269" y="680" as="targetPoint" />
          </mxGeometry>
        </mxCell>
        <mxCell id="Y--FWD_rMeRqaUhSlxtO-9" value="" style="endArrow=classic;html=1;rounded=0;exitX=1;exitY=1;exitDx=0;exitDy=0;exitPerimeter=0;" edge="1" parent="1" source="Y--FWD_rMeRqaUhSlxtO-1" target="Y--FWD_rMeRqaUhSlxtO-4">
          <mxGeometry width="50" height="50" relative="1" as="geometry">
            <mxPoint x="169" y="680" as="sourcePoint" />
            <mxPoint x="269" y="680" as="targetPoint" />
          </mxGeometry>
        </mxCell>
        <mxCell id="Y--FWD_rMeRqaUhSlxtO-10" value="" style="endArrow=classic;html=1;rounded=0;exitX=1;exitY=1;exitDx=0;exitDy=0;exitPerimeter=0;" edge="1" parent="1" source="Y--FWD_rMeRqaUhSlxtO-12" target="Y--FWD_rMeRqaUhSlxtO-5">
          <mxGeometry width="50" height="50" relative="1" as="geometry">
            <mxPoint x="219" y="730" as="sourcePoint" />
            <mxPoint x="269" y="680" as="targetPoint" />
          </mxGeometry>
        </mxCell>
        <mxCell id="Y--FWD_rMeRqaUhSlxtO-13" value="" style="endArrow=classic;html=1;rounded=0;exitX=1;exitY=1;exitDx=0;exitDy=0;exitPerimeter=0;" edge="1" parent="1" source="Y--FWD_rMeRqaUhSlxtO-1" target="Y--FWD_rMeRqaUhSlxtO-12">
          <mxGeometry width="50" height="50" relative="1" as="geometry">
            <mxPoint x="159" y="680" as="sourcePoint" />
            <mxPoint x="251" y="872" as="targetPoint" />
          </mxGeometry>
        </mxCell>
        <mxCell id="Y--FWD_rMeRqaUhSlxtO-12" value="Customer" style="text;html=1;align=center;verticalAlign=middle;whiteSpace=wrap;rounded=0;" vertex="1" parent="1">
          <mxGeometry x="114" y="680" width="60" height="30" as="geometry" />
        </mxCell>
        <mxCell id="Y--FWD_rMeRqaUhSlxtO-14" value="&lt;b&gt;Add to wishlist&lt;/b&gt;" style="text;html=1;align=center;verticalAlign=middle;whiteSpace=wrap;rounded=0;" vertex="1" parent="1">
          <mxGeometry x="249" y="525" width="120" height="30" as="geometry" />
        </mxCell>
        <mxCell id="Y--FWD_rMeRqaUhSlxtO-15" value="&lt;b&gt;View Products&lt;/b&gt;" style="text;html=1;align=center;verticalAlign=middle;whiteSpace=wrap;rounded=0;" vertex="1" parent="1">
          <mxGeometry x="609" y="655" width="80" height="30" as="geometry" />
        </mxCell>
        <mxCell id="Y--FWD_rMeRqaUhSlxtO-16" value="&lt;b&gt;Add To Ca&lt;/b&gt;rt" style="text;html=1;align=center;verticalAlign=middle;whiteSpace=wrap;rounded=0;" vertex="1" parent="1">
          <mxGeometry x="379" y="770" width="60" height="30" as="geometry" />
        </mxCell>
        <mxCell id="Y--FWD_rMeRqaUhSlxtO-17" value="&lt;b&gt;Checkout&lt;/b&gt;" style="text;html=1;align=center;verticalAlign=middle;whiteSpace=wrap;rounded=0;" vertex="1" parent="1">
          <mxGeometry x="349" y="885" width="60" height="30" as="geometry" />
        </mxCell>
        <mxCell id="Y--FWD_rMeRqaUhSlxtO-18" value="" style="ellipse;whiteSpace=wrap;html=1;" vertex="1" parent="1">
          <mxGeometry x="1269" y="530" width="120" height="80" as="geometry" />
        </mxCell>
        <mxCell id="Y--FWD_rMeRqaUhSlxtO-19" value="&lt;b&gt;Gets Error Message&lt;/b&gt;" style="text;html=1;align=center;verticalAlign=middle;whiteSpace=wrap;rounded=0;" vertex="1" parent="1">
          <mxGeometry x="1289" y="555" width="80" height="30" as="geometry" />
        </mxCell>
        <mxCell id="Y--FWD_rMeRqaUhSlxtO-22" value="" style="ellipse;whiteSpace=wrap;html=1;" vertex="1" parent="1">
          <mxGeometry x="1209" y="665" width="120" height="80" as="geometry" />
        </mxCell>
        <mxCell id="Y--FWD_rMeRqaUhSlxtO-23" value="&lt;b&gt;Login&lt;/b&gt;" style="text;html=1;align=center;verticalAlign=middle;whiteSpace=wrap;rounded=0;" vertex="1" parent="1">
          <mxGeometry x="1239" y="690" width="60" height="30" as="geometry" />
        </mxCell>
        <mxCell id="Y--FWD_rMeRqaUhSlxtO-24" value="" style="ellipse;whiteSpace=wrap;html=1;" vertex="1" parent="1">
          <mxGeometry x="1249" y="785" width="120" height="80" as="geometry" />
        </mxCell>
        <mxCell id="Y--FWD_rMeRqaUhSlxtO-25" value="&lt;b&gt;Handle Orders&lt;/b&gt;" style="text;html=1;align=center;verticalAlign=middle;whiteSpace=wrap;rounded=0;" vertex="1" parent="1">
          <mxGeometry x="1279" y="810" width="60" height="30" as="geometry" />
        </mxCell>
        <mxCell id="Y--FWD_rMeRqaUhSlxtO-26" value="" style="shape=umlActor;verticalLabelPosition=bottom;verticalAlign=top;html=1;outlineConnect=0;" vertex="1" parent="1">
          <mxGeometry x="1489" y="720" width="110" height="130" as="geometry" />
        </mxCell>
        <mxCell id="Y--FWD_rMeRqaUhSlxtO-27" value="Administratior" style="text;html=1;align=center;verticalAlign=middle;whiteSpace=wrap;rounded=0;" vertex="1" parent="1">
          <mxGeometry x="1486.5" y="865" width="115" height="30" as="geometry" />
        </mxCell>
        <mxCell id="Y--FWD_rMeRqaUhSlxtO-28" value="" style="ellipse;whiteSpace=wrap;html=1;" vertex="1" parent="1">
          <mxGeometry x="1209" y="920" width="120" height="80" as="geometry" />
        </mxCell>
        <mxCell id="Y--FWD_rMeRqaUhSlxtO-29" value="&lt;b&gt;Manage&amp;nbsp; Items&lt;/b&gt;" style="text;html=1;align=center;verticalAlign=middle;whiteSpace=wrap;rounded=0;" vertex="1" parent="1">
          <mxGeometry x="1239" y="940" width="60" height="30" as="geometry" />
        </mxCell>
        <mxCell id="Y--FWD_rMeRqaUhSlxtO-30" value="" style="endArrow=classic;html=1;rounded=0;exitX=0;exitY=0.3333333333333333;exitDx=0;exitDy=0;exitPerimeter=0;entryX=1;entryY=0;entryDx=0;entryDy=0;" edge="1" parent="1" source="Y--FWD_rMeRqaUhSlxtO-26" target="Y--FWD_rMeRqaUhSlxtO-24">
          <mxGeometry width="50" height="50" relative="1" as="geometry">
            <mxPoint x="1419" y="680" as="sourcePoint" />
            <mxPoint x="1469" y="630" as="targetPoint" />
          </mxGeometry>
        </mxCell>
        <mxCell id="Y--FWD_rMeRqaUhSlxtO-31" value="" style="endArrow=classic;html=1;rounded=0;entryX=0.987;entryY=0.26;entryDx=0;entryDy=0;entryPerimeter=0;exitX=0;exitY=1;exitDx=0;exitDy=0;exitPerimeter=0;" edge="1" parent="1" source="Y--FWD_rMeRqaUhSlxtO-26" target="Y--FWD_rMeRqaUhSlxtO-28">
          <mxGeometry width="50" height="50" relative="1" as="geometry">
            <mxPoint x="1419" y="950" as="sourcePoint" />
            <mxPoint x="1469" y="900" as="targetPoint" />
          </mxGeometry>
        </mxCell>
        <mxCell id="Y--FWD_rMeRqaUhSlxtO-32" value="" style="ellipse;whiteSpace=wrap;html=1;" vertex="1" parent="1">
          <mxGeometry x="969" y="1010" width="120" height="80" as="geometry" />
        </mxCell>
        <mxCell id="Y--FWD_rMeRqaUhSlxtO-33" value="" style="ellipse;whiteSpace=wrap;html=1;" vertex="1" parent="1">
          <mxGeometry x="1159" y="1070" width="120" height="80" as="geometry" />
        </mxCell>
        <mxCell id="Y--FWD_rMeRqaUhSlxtO-34" value="" style="ellipse;whiteSpace=wrap;html=1;" vertex="1" parent="1">
          <mxGeometry x="1369" y="1060" width="120" height="80" as="geometry" />
        </mxCell>
        <mxCell id="Y--FWD_rMeRqaUhSlxtO-36" value="" style="endArrow=classic;html=1;rounded=0;exitX=-0.02;exitY=0.695;exitDx=0;exitDy=0;exitPerimeter=0;entryX=1;entryY=0;entryDx=0;entryDy=0;" edge="1" parent="1" source="Y--FWD_rMeRqaUhSlxtO-28" target="Y--FWD_rMeRqaUhSlxtO-32">
          <mxGeometry width="50" height="50" relative="1" as="geometry">
            <mxPoint x="1119" y="880" as="sourcePoint" />
            <mxPoint x="1169" y="830" as="targetPoint" />
          </mxGeometry>
        </mxCell>
        <mxCell id="Y--FWD_rMeRqaUhSlxtO-38" value="" style="endArrow=classic;html=1;rounded=0;entryX=0.623;entryY=0.04;entryDx=0;entryDy=0;entryPerimeter=0;exitX=0.66;exitY=0.995;exitDx=0;exitDy=0;exitPerimeter=0;" edge="1" parent="1" source="Y--FWD_rMeRqaUhSlxtO-28" target="Y--FWD_rMeRqaUhSlxtO-33">
          <mxGeometry width="50" height="50" relative="1" as="geometry">
            <mxPoint x="1319" y="1050" as="sourcePoint" />
            <mxPoint x="1369" y="1000" as="targetPoint" />
          </mxGeometry>
        </mxCell>
        <mxCell id="Y--FWD_rMeRqaUhSlxtO-40" value="" style="endArrow=classic;html=1;rounded=0;exitX=1;exitY=1;exitDx=0;exitDy=0;entryX=0.5;entryY=0;entryDx=0;entryDy=0;" edge="1" parent="1" source="Y--FWD_rMeRqaUhSlxtO-28" target="Y--FWD_rMeRqaUhSlxtO-34">
          <mxGeometry width="50" height="50" relative="1" as="geometry">
            <mxPoint x="1409" y="1010" as="sourcePoint" />
            <mxPoint x="1459" y="960" as="targetPoint" />
          </mxGeometry>
        </mxCell>
        <mxCell id="Y--FWD_rMeRqaUhSlxtO-41" value="&lt;b&gt;Add Item&lt;/b&gt;" style="text;html=1;align=center;verticalAlign=middle;whiteSpace=wrap;rounded=0;" vertex="1" parent="1">
          <mxGeometry x="999" y="1035" width="60" height="30" as="geometry" />
        </mxCell>
        <mxCell id="Y--FWD_rMeRqaUhSlxtO-42" value="&lt;b&gt;Edit Item&lt;/b&gt;" style="text;html=1;align=center;verticalAlign=middle;whiteSpace=wrap;rounded=0;" vertex="1" parent="1">
          <mxGeometry x="1189" y="1095" width="60" height="30" as="geometry" />
        </mxCell>
        <mxCell id="Y--FWD_rMeRqaUhSlxtO-43" value="&lt;b&gt;Delete Item&lt;/b&gt;" style="text;html=1;align=center;verticalAlign=middle;whiteSpace=wrap;rounded=0;" vertex="1" parent="1">
          <mxGeometry x="1399" y="1085" width="60" height="30" as="geometry" />
        </mxCell>
        <mxCell id="Y--FWD_rMeRqaUhSlxtO-45" value="" style="endArrow=classic;html=1;rounded=0;exitX=1;exitY=1;exitDx=0;exitDy=0;entryX=0;entryY=0.5;entryDx=0;entryDy=0;" edge="1" parent="1" source="Y--FWD_rMeRqaUhSlxtO-4" target="Y--FWD_rMeRqaUhSlxtO-22">
          <mxGeometry width="50" height="50" relative="1" as="geometry">
            <mxPoint x="389" y="780" as="sourcePoint" />
            <mxPoint x="439" y="730" as="targetPoint" />
          </mxGeometry>
        </mxCell>
        <mxCell id="Y--FWD_rMeRqaUhSlxtO-46" value="" style="endArrow=classic;html=1;rounded=0;exitX=1;exitY=0;exitDx=0;exitDy=0;entryX=0;entryY=0;entryDx=0;entryDy=0;" edge="1" parent="1" source="Y--FWD_rMeRqaUhSlxtO-14" target="Y--FWD_rMeRqaUhSlxtO-22">
          <mxGeometry width="50" height="50" relative="1" as="geometry">
            <mxPoint x="439" y="540" as="sourcePoint" />
            <mxPoint x="489" y="490" as="targetPoint" />
          </mxGeometry>
        </mxCell>
        <mxCell id="Y--FWD_rMeRqaUhSlxtO-47" value="" style="endArrow=classic;html=1;rounded=0;exitX=1;exitY=0.75;exitDx=0;exitDy=0;exitPerimeter=0;entryX=0.02;entryY=0.828;entryDx=0;entryDy=0;entryPerimeter=0;" edge="1" parent="1" source="Y--FWD_rMeRqaUhSlxtO-5" target="Y--FWD_rMeRqaUhSlxtO-22">
          <mxGeometry width="50" height="50" relative="1" as="geometry">
            <mxPoint x="389" y="960" as="sourcePoint" />
            <mxPoint x="439" y="910" as="targetPoint" />
          </mxGeometry>
        </mxCell>
        <mxCell id="Y--FWD_rMeRqaUhSlxtO-48" value="" style="endArrow=none;dashed=1;html=1;dashPattern=1 3;strokeWidth=2;rounded=0;entryX=0.707;entryY=0.915;entryDx=0;entryDy=0;entryPerimeter=0;" edge="1" parent="1" target="Y--FWD_rMeRqaUhSlxtO-18">
          <mxGeometry width="50" height="50" relative="1" as="geometry">
            <mxPoint x="1279" y="670" as="sourcePoint" />
            <mxPoint x="1329" y="620" as="targetPoint" />
          </mxGeometry>
        </mxCell>
        <mxCell id="Y--FWD_rMeRqaUhSlxtO-49" value="" style="endArrow=none;dashed=1;html=1;dashPattern=1 3;strokeWidth=2;rounded=0;entryX=0;entryY=0.5;entryDx=0;entryDy=0;exitX=0.5;exitY=1;exitDx=0;exitDy=0;" edge="1" parent="1" source="Y--FWD_rMeRqaUhSlxtO-22" target="Y--FWD_rMeRqaUhSlxtO-24">
          <mxGeometry width="50" height="50" relative="1" as="geometry">
            <mxPoint x="1169" y="860" as="sourcePoint" />
            <mxPoint x="1219" y="810" as="targetPoint" />
          </mxGeometry>
        </mxCell>
        <mxCell id="Y--FWD_rMeRqaUhSlxtO-50" value="" style="endArrow=none;dashed=1;html=1;dashPattern=1 3;strokeWidth=2;rounded=0;exitX=0.007;exitY=0.14;exitDx=0;exitDy=0;exitPerimeter=0;entryX=0;entryY=1;entryDx=0;entryDy=0;" edge="1" parent="1" source="Y--FWD_rMeRqaUhSlxtO-28" target="Y--FWD_rMeRqaUhSlxtO-22">
          <mxGeometry width="50" height="50" relative="1" as="geometry">
            <mxPoint x="1169" y="880" as="sourcePoint" />
            <mxPoint x="1219" y="830" as="targetPoint" />
          </mxGeometry>
        </mxCell>
        <mxCell id="Y--FWD_rMeRqaUhSlxtO-51" value="" style="shape=umlActor;verticalLabelPosition=bottom;verticalAlign=top;html=1;outlineConnect=0;" vertex="1" parent="1">
          <mxGeometry x="1479" y="1630" width="81" height="100" as="geometry" />
        </mxCell>
        <mxCell id="Y--FWD_rMeRqaUhSlxtO-55" value="&lt;b&gt;Payment Gateway&lt;/b&gt;" style="text;html=1;align=center;verticalAlign=middle;whiteSpace=wrap;rounded=0;" vertex="1" parent="1">
          <mxGeometry x="1490" y="1750" width="60" height="30" as="geometry" />
        </mxCell>
        <mxCell id="Y--FWD_rMeRqaUhSlxtO-56" value="" style="ellipse;whiteSpace=wrap;html=1;" vertex="1" parent="1">
          <mxGeometry x="1169" y="1640" width="120" height="80" as="geometry" />
        </mxCell>
        <mxCell id="Y--FWD_rMeRqaUhSlxtO-57" value="&lt;b&gt;Authorize Payment&lt;/b&gt;" style="text;html=1;align=center;verticalAlign=middle;whiteSpace=wrap;rounded=0;" vertex="1" parent="1">
          <mxGeometry x="1199" y="1666" width="60" height="30" as="geometry" />
        </mxCell>
        <mxCell id="Y--FWD_rMeRqaUhSlxtO-58" value="" style="endArrow=classic;html=1;rounded=0;entryX=1;entryY=0.5;entryDx=0;entryDy=0;exitX=0;exitY=1;exitDx=0;exitDy=0;exitPerimeter=0;" edge="1" parent="1" source="Y--FWD_rMeRqaUhSlxtO-51" target="Y--FWD_rMeRqaUhSlxtO-56">
          <mxGeometry width="50" height="50" relative="1" as="geometry">
            <mxPoint x="1399" y="1760" as="sourcePoint" />
            <mxPoint x="1449" y="1710" as="targetPoint" />
          </mxGeometry>
        </mxCell>
        <mxCell id="Y--FWD_rMeRqaUhSlxtO-59" value="" style="endArrow=classic;html=1;rounded=0;entryX=0.75;entryY=0;entryDx=0;entryDy=0;exitX=0.8;exitY=2.233;exitDx=0;exitDy=0;exitPerimeter=0;strokeColor=none;" edge="1" parent="1" source="Y--FWD_rMeRqaUhSlxtO-17" target="Y--FWD_rMeRqaUhSlxtO-57">
          <mxGeometry width="50" height="50" relative="1" as="geometry">
            <mxPoint x="449" y="1120" as="sourcePoint" />
            <mxPoint x="499" y="1070" as="targetPoint" />
          </mxGeometry>
        </mxCell>
        <mxCell id="Y--FWD_rMeRqaUhSlxtO-60" value="" style="endArrow=none;dashed=1;html=1;dashPattern=1 3;strokeWidth=2;rounded=0;exitX=0.91;exitY=1.738;exitDx=0;exitDy=0;exitPerimeter=0;" edge="1" parent="1" source="Y--FWD_rMeRqaUhSlxtO-17">
          <mxGeometry width="50" height="50" relative="1" as="geometry">
            <mxPoint x="309" y="970" as="sourcePoint" />
            <mxPoint x="1199" y="1640" as="targetPoint" />
          </mxGeometry>
        </mxCell>
        <mxCell id="Y--FWD_rMeRqaUhSlxtO-61" value="Guest" style="shape=umlActor;verticalLabelPosition=bottom;verticalAlign=top;html=1;outlineConnect=0;" vertex="1" parent="1">
          <mxGeometry x="100" y="1490" width="89" height="90" as="geometry" />
        </mxCell>
        <mxCell id="Y--FWD_rMeRqaUhSlxtO-62" value="" style="ellipse;whiteSpace=wrap;html=1;" vertex="1" parent="1">
          <mxGeometry x="349" y="1477" width="120" height="80" as="geometry" />
        </mxCell>
        <mxCell id="Y--FWD_rMeRqaUhSlxtO-63" value="" style="ellipse;whiteSpace=wrap;html=1;" vertex="1" parent="1">
          <mxGeometry x="269" y="1616" width="120" height="80" as="geometry" />
        </mxCell>
        <mxCell id="Y--FWD_rMeRqaUhSlxtO-64" value="&lt;b&gt;Register&lt;/b&gt;" style="text;html=1;align=center;verticalAlign=middle;whiteSpace=wrap;rounded=0;" vertex="1" parent="1">
          <mxGeometry x="379" y="1502" width="60" height="30" as="geometry" />
        </mxCell>
        <mxCell id="Y--FWD_rMeRqaUhSlxtO-65" value="&lt;b&gt;Search&lt;/b&gt;" style="text;html=1;align=center;verticalAlign=middle;whiteSpace=wrap;rounded=0;" vertex="1" parent="1">
          <mxGeometry x="299" y="1641" width="60" height="30" as="geometry" />
        </mxCell>
        <mxCell id="Y--FWD_rMeRqaUhSlxtO-66" value="" style="endArrow=classic;html=1;rounded=0;entryX=0.008;entryY=0.338;entryDx=0;entryDy=0;entryPerimeter=0;exitX=1;exitY=0.3333333333333333;exitDx=0;exitDy=0;exitPerimeter=0;" edge="1" parent="1" source="Y--FWD_rMeRqaUhSlxtO-61" target="Y--FWD_rMeRqaUhSlxtO-62">
          <mxGeometry width="50" height="50" relative="1" as="geometry">
            <mxPoint x="189" y="1470" as="sourcePoint" />
            <mxPoint x="239" y="1420" as="targetPoint" />
          </mxGeometry>
        </mxCell>
        <mxCell id="Y--FWD_rMeRqaUhSlxtO-67" value="" style="endArrow=classic;html=1;rounded=0;entryX=0.083;entryY=0.05;entryDx=0;entryDy=0;entryPerimeter=0;exitX=1;exitY=1;exitDx=0;exitDy=0;exitPerimeter=0;" edge="1" parent="1" source="Y--FWD_rMeRqaUhSlxtO-61" target="Y--FWD_rMeRqaUhSlxtO-63">
          <mxGeometry width="50" height="50" relative="1" as="geometry">
            <mxPoint x="199" y="1620" as="sourcePoint" />
            <mxPoint x="249" y="1570" as="targetPoint" />
          </mxGeometry>
        </mxCell>
        <mxCell id="Y--FWD_rMeRqaUhSlxtO-68" value="" style="endArrow=classic;html=1;rounded=0;exitX=1;exitY=0.3333333333333333;exitDx=0;exitDy=0;exitPerimeter=0;entryX=0.358;entryY=0.988;entryDx=0;entryDy=0;entryPerimeter=0;" edge="1" parent="1" source="Y--FWD_rMeRqaUhSlxtO-61" target="Y--FWD_rMeRqaUhSlxtO-3">
          <mxGeometry width="50" height="50" relative="1" as="geometry">
            <mxPoint x="219" y="1460" as="sourcePoint" />
            <mxPoint x="269" y="1410" as="targetPoint" />
          </mxGeometry>
        </mxCell>
        <mxCell id="Y--FWD_rMeRqaUhSlxtO-70" value="" style="endArrow=classic;html=1;rounded=0;entryX=0.5;entryY=0;entryDx=0;entryDy=0;exitX=1;exitY=0.75;exitDx=0;exitDy=0;" edge="1" parent="1" source="Y--FWD_rMeRqaUhSlxtO-12" target="Y--FWD_rMeRqaUhSlxtO-63">
          <mxGeometry width="50" height="50" relative="1" as="geometry">
            <mxPoint x="159" y="910" as="sourcePoint" />
            <mxPoint x="209" y="860" as="targetPoint" />
          </mxGeometry>
        </mxCell>
        <mxCell id="Y--FWD_rMeRqaUhSlxtO-72" value="&lt;b&gt;&lt;font style=&quot;font-size: 50px;&quot;&gt;e-fashion website&lt;/font&gt;&lt;/b&gt;" style="text;html=1;align=center;verticalAlign=middle;whiteSpace=wrap;rounded=0;" vertex="1" parent="1">
          <mxGeometry x="599" y="80" width="540" height="190" as="geometry" />
        </mxCell>
      </root>
    </mxGraphModel>
  </diagram>
</mxfile>
